# xmcd CD database file generated by Grip 3.3.1
# 
# Track frame offsets:
#       150
#       14782
#       28418
#       39767
#       51448
#       64825
#       80683
#       93303
#       104943
#       117934
#       131875
#       145958
#       160811
#       174329
#       187349
#       201100
#       214836
#       228690
#       241819
#       256330
#       269077
#       283166
#       294373
#       307500
#       322270
# 
# Disc length: 4453 seconds
# 
# Revision: 1
# Processed by: cddbd v1.5.2PL0 Copyright (c) Steve Scherf et al.
# Submitted via: Grip 3.3.1
# 
DISCID=8d116319
DTITLE=Ernest Tubb - Texas Troubadour - The Early years [CDA) 1936-19
DTITLE=41
DYEAR=2008
DGENRE=Country
TTITLE0=The Passing of Jimmie Rodgers
TTITLE1=The Last Thoughts of Jimmie Rodgers
TTITLE2=Married Man Blues
TTITLE3=Mean Old Bed Bug Blues
TTITLE4=My Mother Is Lonely
TTITLE5=The Right Train to Heaven
TTITLE6=The T.B. Is Whipping Me
TTITLE7=Since That Black Cat Crossed My Path
TTITLE8=Blue Eyed Elaine
TTITLE9=I'll Never Cry Over You
TTITLE10=I'll Get Along Somehow
TTITLE11=You Broke a Heart
TTITLE12=I Ain't Gonna Love You Anymore
TTITLE13=I'm Glad I Met You After All
TTITLE14=I Cared for You More Than I Knew
TTITLE15=You'll Love Me Too Late
TTITLE16=I've Really Learned a Lot
TTITLE17=Swell San Angelo
TTITLE18=I Know What It Means to Be Lonely
TTITLE19=Please Remember Me
TTITLE20=My Rainbow Trail
TTITLE21=Last Night I Dreamed
TTITLE22=I'm Missing You
TTITLE23=My Baby and My Wife
TTITLE24=Walking the Floor Over You
EXTD=
EXTT0=
EXTT1=
EXTT2=
EXTT3=
EXTT4=
EXTT5=
EXTT6=
EXTT7=
EXTT8=
EXTT9=
EXTT10=
EXTT11=
EXTT12=
EXTT13=
EXTT14=
EXTT15=
EXTT16=
EXTT17=
EXTT18=
EXTT19=
EXTT20=
EXTT21=
EXTT22=
EXTT23=
EXTT24=
PLAYORDER=
